<?xml version="1.0" encoding="utf-8"?>
<svg xmlns="http://www.w3.org/2000/svg" xmlns:xlink="http://www.w3.org/1999/xlink" xml:space="preserve" width="986" height="1231.5" viewBox="0 0 986 1231.5"><g fill="#ffffff">
<g transform="translate(337,145) scale(4.12)"><rect width="6" height="6"/></g>
<g transform="translate(409,145) scale(4.12)"><rect width="6" height="6"/></g>
<g transform="translate(433,145) scale(4.12)"><rect width="6" height="6"/></g>
<g transform="translate(457,145) scale(4.12)"><rect width="6" height="6"/></g>
<g transform="translate(481,145) scale(4.12)"><rect width="6" height="6"/></g>
<g transform="translate(505,145) scale(4.12)"><rect width="6" height="6"/></g>
<g transform="translate(337,169) scale(4.12)"><rect width="6" height="6"/></g>
<g transform="translate(361,169) scale(4.12)"><rect width="6" height="6"/></g>
<g transform="translate(409,169) scale(4.12)"><rect width="6" height="6"/></g>
<g transform="translate(433,169) scale(4.12)"><rect width="6" height="6"/></g>
<g transform="translate(505,169) scale(4.12)"><rect width="6" height="6"/></g>
<g transform="translate(529,169) scale(4.12)"><rect width="6" height="6"/></g>
<g transform="translate(577,169) scale(4.12)"><rect width="6" height="6"/></g>
<g transform="translate(625,169) scale(4.12)"><rect width="6" height="6"/></g>
<g transform="translate(337,193) scale(4.12)"><rect width="6" height="6"/></g>
<g transform="translate(385,193) scale(4.12)"><rect width="6" height="6"/></g>
<g transform="translate(409,193) scale(4.12)"><rect width="6" height="6"/></g>
<g transform="translate(457,193) scale(4.12)"><rect width="6" height="6"/></g>
<g transform="translate(505,193) scale(4.12)"><rect width="6" height="6"/></g>
<g transform="translate(529,193) scale(4.12)"><rect width="6" height="6"/></g>
<g transform="translate(553,193) scale(4.12)"><rect width="6" height="6"/></g>
<g transform="translate(577,193) scale(4.12)"><rect width="6" height="6"/></g>
<g transform="translate(385,217) scale(4.12)"><rect width="6" height="6"/></g>
<g transform="translate(409,217) scale(4.12)"><rect width="6" height="6"/></g>
<g transform="translate(433,217) scale(4.12)"><rect width="6" height="6"/></g>
<g transform="translate(457,217) scale(4.12)"><rect width="6" height="6"/></g>
<g transform="translate(553,217) scale(4.12)"><rect width="6" height="6"/></g>
<g transform="translate(577,217) scale(4.12)"><rect width="6" height="6"/></g>
<g transform="translate(625,217) scale(4.12)"><rect width="6" height="6"/></g>
<g transform="translate(385,241) scale(4.12)"><rect width="6" height="6"/></g>
<g transform="translate(457,241) scale(4.12)"><rect width="6" height="6"/></g>
<g transform="translate(481,241) scale(4.12)"><rect width="6" height="6"/></g>
<g transform="translate(529,241) scale(4.12)"><rect width="6" height="6"/></g>
<g transform="translate(553,241) scale(4.12)"><rect width="6" height="6"/></g>
<g transform="translate(601,241) scale(4.12)"><rect width="6" height="6"/></g>
<g transform="translate(337,265) scale(4.12)"><rect width="6" height="6"/></g>
<g transform="translate(361,265) scale(4.12)"><rect width="6" height="6"/></g>
<g transform="translate(481,265) scale(4.12)"><rect width="6" height="6"/></g>
<g transform="translate(529,265) scale(4.12)"><rect width="6" height="6"/></g>
<g transform="translate(553,265) scale(4.12)"><rect width="6" height="6"/></g>
<g transform="translate(625,265) scale(4.12)"><rect width="6" height="6"/></g>
<g transform="translate(337,289) scale(4.12)"><rect width="6" height="6"/></g>
<g transform="translate(385,289) scale(4.12)"><rect width="6" height="6"/></g>
<g transform="translate(433,289) scale(4.12)"><rect width="6" height="6"/></g>
<g transform="translate(481,289) scale(4.12)"><rect width="6" height="6"/></g>
<g transform="translate(529,289) scale(4.12)"><rect width="6" height="6"/></g>
<g transform="translate(577,289) scale(4.12)"><rect width="6" height="6"/></g>
<g transform="translate(625,289) scale(4.12)"><rect width="6" height="6"/></g>
<g transform="translate(337,313) scale(4.12)"><rect width="6" height="6"/></g>
<g transform="translate(361,313) scale(4.12)"><rect width="6" height="6"/></g>
<g transform="translate(481,313) scale(4.12)"><rect width="6" height="6"/></g>
<g transform="translate(505,313) scale(4.12)"><rect width="6" height="6"/></g>
<g transform="translate(553,313) scale(4.12)"><rect width="6" height="6"/></g>
<g transform="translate(577,313) scale(4.12)"><rect width="6" height="6"/></g>
<g transform="translate(193,337) scale(4.12)"><rect width="6" height="6"/></g>
<g transform="translate(217,337) scale(4.12)"><rect width="6" height="6"/></g>
<g transform="translate(241,337) scale(4.12)"><rect width="6" height="6"/></g>
<g transform="translate(289,337) scale(4.12)"><rect width="6" height="6"/></g>
<g transform="translate(337,337) scale(4.12)"><rect width="6" height="6"/></g>
<g transform="translate(361,337) scale(4.12)"><rect width="6" height="6"/></g>
<g transform="translate(409,337) scale(4.12)"><rect width="6" height="6"/></g>
<g transform="translate(433,337) scale(4.12)"><rect width="6" height="6"/></g>
<g transform="translate(649,337) scale(4.12)"><rect width="6" height="6"/></g>
<g transform="translate(673,337) scale(4.12)"><rect width="6" height="6"/></g>
<g transform="translate(697,337) scale(4.12)"><rect width="6" height="6"/></g>
<g transform="translate(769,337) scale(4.12)"><rect width="6" height="6"/></g>
<g transform="translate(793,337) scale(4.12)"><rect width="6" height="6"/></g>
<g transform="translate(817,337) scale(4.12)"><rect width="6" height="6"/></g>
<g transform="translate(145,361) scale(4.12)"><rect width="6" height="6"/></g>
<g transform="translate(193,361) scale(4.12)"><rect width="6" height="6"/></g>
<g transform="translate(217,361) scale(4.12)"><rect width="6" height="6"/></g>
<g transform="translate(337,361) scale(4.12)"><rect width="6" height="6"/></g>
<g transform="translate(457,361) scale(4.12)"><rect width="6" height="6"/></g>
<g transform="translate(481,361) scale(4.12)"><rect width="6" height="6"/></g>
<g transform="translate(577,361) scale(4.12)"><rect width="6" height="6"/></g>
<g transform="translate(625,361) scale(4.12)"><rect width="6" height="6"/></g>
<g transform="translate(721,361) scale(4.12)"><rect width="6" height="6"/></g>
<g transform="translate(745,361) scale(4.12)"><rect width="6" height="6"/></g>
<g transform="translate(793,361) scale(4.12)"><rect width="6" height="6"/></g>
<g transform="translate(817,361) scale(4.12)"><rect width="6" height="6"/></g>
<g transform="translate(145,385) scale(4.12)"><rect width="6" height="6"/></g>
<g transform="translate(289,385) scale(4.12)"><rect width="6" height="6"/></g>
<g transform="translate(313,385) scale(4.12)"><rect width="6" height="6"/></g>
<g transform="translate(385,385) scale(4.12)"><rect width="6" height="6"/></g>
<g transform="translate(409,385) scale(4.12)"><rect width="6" height="6"/></g>
<g transform="translate(433,385) scale(4.12)"><rect width="6" height="6"/></g>
<g transform="translate(457,385) scale(4.12)"><rect width="6" height="6"/></g>
<g transform="translate(481,385) scale(4.12)"><rect width="6" height="6"/></g>
<g transform="translate(505,385) scale(4.12)"><rect width="6" height="6"/></g>
<g transform="translate(529,385) scale(4.12)"><rect width="6" height="6"/></g>
<g transform="translate(553,385) scale(4.12)"><rect width="6" height="6"/></g>
<g transform="translate(577,385) scale(4.12)"><rect width="6" height="6"/></g>
<g transform="translate(601,385) scale(4.12)"><rect width="6" height="6"/></g>
<g transform="translate(649,385) scale(4.12)"><rect width="6" height="6"/></g>
<g transform="translate(673,385) scale(4.12)"><rect width="6" height="6"/></g>
<g transform="translate(697,385) scale(4.12)"><rect width="6" height="6"/></g>
<g transform="translate(721,385) scale(4.12)"><rect width="6" height="6"/></g>
<g transform="translate(745,385) scale(4.12)"><rect width="6" height="6"/></g>
<g transform="translate(769,385) scale(4.12)"><rect width="6" height="6"/></g>
<g transform="translate(793,385) scale(4.12)"><rect width="6" height="6"/></g>
<g transform="translate(145,409) scale(4.12)"><rect width="6" height="6"/></g>
<g transform="translate(169,409) scale(4.12)"><rect width="6" height="6"/></g>
<g transform="translate(217,409) scale(4.12)"><rect width="6" height="6"/></g>
<g transform="translate(265,409) scale(4.12)"><rect width="6" height="6"/></g>
<g transform="translate(313,409) scale(4.12)"><rect width="6" height="6"/></g>
<g transform="translate(337,409) scale(4.12)"><rect width="6" height="6"/></g>
<g transform="translate(385,409) scale(4.12)"><rect width="6" height="6"/></g>
<g transform="translate(457,409) scale(4.12)"><rect width="6" height="6"/></g>
<g transform="translate(481,409) scale(4.12)"><rect width="6" height="6"/></g>
<g transform="translate(577,409) scale(4.12)"><rect width="6" height="6"/></g>
<g transform="translate(601,409) scale(4.12)"><rect width="6" height="6"/></g>
<g transform="translate(625,409) scale(4.12)"><rect width="6" height="6"/></g>
<g transform="translate(649,409) scale(4.12)"><rect width="6" height="6"/></g>
<g transform="translate(673,409) scale(4.12)"><rect width="6" height="6"/></g>
<g transform="translate(721,409) scale(4.12)"><rect width="6" height="6"/></g>
<g transform="translate(817,409) scale(4.12)"><rect width="6" height="6"/></g>
<g transform="translate(169,433) scale(4.12)"><rect width="6" height="6"/></g>
<g transform="translate(193,433) scale(4.12)"><rect width="6" height="6"/></g>
<g transform="translate(265,433) scale(4.12)"><rect width="6" height="6"/></g>
<g transform="translate(289,433) scale(4.12)"><rect width="6" height="6"/></g>
<g transform="translate(337,433) scale(4.12)"><rect width="6" height="6"/></g>
<g transform="translate(361,433) scale(4.12)"><rect width="6" height="6"/></g>
<g transform="translate(457,433) scale(4.12)"><rect width="6" height="6"/></g>
<g transform="translate(481,433) scale(4.12)"><rect width="6" height="6"/></g>
<g transform="translate(529,433) scale(4.12)"><rect width="6" height="6"/></g>
<g transform="translate(553,433) scale(4.12)"><rect width="6" height="6"/></g>
<g transform="translate(601,433) scale(4.12)"><rect width="6" height="6"/></g>
<g transform="translate(649,433) scale(4.12)"><rect width="6" height="6"/></g>
<g transform="translate(697,433) scale(4.12)"><rect width="6" height="6"/></g>
<g transform="translate(745,433) scale(4.12)"><rect width="6" height="6"/></g>
<g transform="translate(769,433) scale(4.12)"><rect width="6" height="6"/></g>
<g transform="translate(793,433) scale(4.12)"><rect width="6" height="6"/></g>
<g transform="translate(817,433) scale(4.12)"><rect width="6" height="6"/></g>
<g transform="translate(241,457) scale(4.12)"><rect width="6" height="6"/></g>
<g transform="translate(313,457) scale(4.12)"><rect width="6" height="6"/></g>
<g transform="translate(433,457) scale(4.12)"><rect width="6" height="6"/></g>
<g transform="translate(529,457) scale(4.12)"><rect width="6" height="6"/></g>
<g transform="translate(577,457) scale(4.12)"><rect width="6" height="6"/></g>
<g transform="translate(601,457) scale(4.12)"><rect width="6" height="6"/></g>
<g transform="translate(649,457) scale(4.12)"><rect width="6" height="6"/></g>
<g transform="translate(721,457) scale(4.12)"><rect width="6" height="6"/></g>
<g transform="translate(745,457) scale(4.12)"><rect width="6" height="6"/></g>
<g transform="translate(241,481) scale(4.12)"><rect width="6" height="6"/></g>
<g transform="translate(289,481) scale(4.12)"><rect width="6" height="6"/></g>
<g transform="translate(313,481) scale(4.12)"><rect width="6" height="6"/></g>
<g transform="translate(337,481) scale(4.12)"><rect width="6" height="6"/></g>
<g transform="translate(361,481) scale(4.12)"><rect width="6" height="6"/></g>
<g transform="translate(409,481) scale(4.12)"><rect width="6" height="6"/></g>
<g transform="translate(457,481) scale(4.12)"><rect width="6" height="6"/></g>
<g transform="translate(505,481) scale(4.12)"><rect width="6" height="6"/></g>
<g transform="translate(553,481) scale(4.12)"><rect width="6" height="6"/></g>
<g transform="translate(673,481) scale(4.12)"><rect width="6" height="6"/></g>
<g transform="translate(745,481) scale(4.12)"><rect width="6" height="6"/></g>
<g transform="translate(793,481) scale(4.12)"><rect width="6" height="6"/></g>
<g transform="translate(169,505) scale(4.12)"><rect width="6" height="6"/></g>
<g transform="translate(241,505) scale(4.12)"><rect width="6" height="6"/></g>
<g transform="translate(265,505) scale(4.12)"><rect width="6" height="6"/></g>
<g transform="translate(337,505) scale(4.12)"><rect width="6" height="6"/></g>
<g transform="translate(361,505) scale(4.12)"><rect width="6" height="6"/></g>
<g transform="translate(385,505) scale(4.12)"><rect width="6" height="6"/></g>
<g transform="translate(433,505) scale(4.12)"><rect width="6" height="6"/></g>
<g transform="translate(457,505) scale(4.12)"><rect width="6" height="6"/></g>
<g transform="translate(481,505) scale(4.12)"><rect width="6" height="6"/></g>
<g transform="translate(553,505) scale(4.12)"><rect width="6" height="6"/></g>
<g transform="translate(577,505) scale(4.12)"><rect width="6" height="6"/></g>
<g transform="translate(601,505) scale(4.12)"><rect width="6" height="6"/></g>
<g transform="translate(697,505) scale(4.12)"><rect width="6" height="6"/></g>
<g transform="translate(745,505) scale(4.12)"><rect width="6" height="6"/></g>
<g transform="translate(793,505) scale(4.12)"><rect width="6" height="6"/></g>
<g transform="translate(817,505) scale(4.12)"><rect width="6" height="6"/></g>
<g transform="translate(145,529) scale(4.12)"><rect width="6" height="6"/></g>
<g transform="translate(217,529) scale(4.12)"><rect width="6" height="6"/></g>
<g transform="translate(289,529) scale(4.12)"><rect width="6" height="6"/></g>
<g transform="translate(337,529) scale(4.12)"><rect width="6" height="6"/></g>
<g transform="translate(361,529) scale(4.12)"><rect width="6" height="6"/></g>
<g transform="translate(385,529) scale(4.12)"><rect width="6" height="6"/></g>
<g transform="translate(409,529) scale(4.12)"><rect width="6" height="6"/></g>
<g transform="translate(433,529) scale(4.12)"><rect width="6" height="6"/></g>
<g transform="translate(457,529) scale(4.12)"><rect width="6" height="6"/></g>
<g transform="translate(553,529) scale(4.12)"><rect width="6" height="6"/></g>
<g transform="translate(601,529) scale(4.12)"><rect width="6" height="6"/></g>
<g transform="translate(649,529) scale(4.12)"><rect width="6" height="6"/></g>
<g transform="translate(673,529) scale(4.12)"><rect width="6" height="6"/></g>
<g transform="translate(697,529) scale(4.12)"><rect width="6" height="6"/></g>
<g transform="translate(769,529) scale(4.12)"><rect width="6" height="6"/></g>
<g transform="translate(145,553) scale(4.12)"><rect width="6" height="6"/></g>
<g transform="translate(193,553) scale(4.12)"><rect width="6" height="6"/></g>
<g transform="translate(217,553) scale(4.12)"><rect width="6" height="6"/></g>
<g transform="translate(313,553) scale(4.12)"><rect width="6" height="6"/></g>
<g transform="translate(409,553) scale(4.12)"><rect width="6" height="6"/></g>
<g transform="translate(433,553) scale(4.12)"><rect width="6" height="6"/></g>
<g transform="translate(505,553) scale(4.12)"><rect width="6" height="6"/></g>
<g transform="translate(529,553) scale(4.12)"><rect width="6" height="6"/></g>
<g transform="translate(577,553) scale(4.12)"><rect width="6" height="6"/></g>
<g transform="translate(145,577) scale(4.12)"><rect width="6" height="6"/></g>
<g transform="translate(217,577) scale(4.12)"><rect width="6" height="6"/></g>
<g transform="translate(241,577) scale(4.12)"><rect width="6" height="6"/></g>
<g transform="translate(265,577) scale(4.12)"><rect width="6" height="6"/></g>
<g transform="translate(289,577) scale(4.12)"><rect width="6" height="6"/></g>
<g transform="translate(361,577) scale(4.12)"><rect width="6" height="6"/></g>
<g transform="translate(409,577) scale(4.12)"><rect width="6" height="6"/></g>
<g transform="translate(457,577) scale(4.12)"><rect width="6" height="6"/></g>
<g transform="translate(529,577) scale(4.12)"><rect width="6" height="6"/></g>
<g transform="translate(577,577) scale(4.12)"><rect width="6" height="6"/></g>
<g transform="translate(745,577) scale(4.12)"><rect width="6" height="6"/></g>
<g transform="translate(145,601) scale(4.12)"><rect width="6" height="6"/></g>
<g transform="translate(193,601) scale(4.12)"><rect width="6" height="6"/></g>
<g transform="translate(217,601) scale(4.12)"><rect width="6" height="6"/></g>
<g transform="translate(265,601) scale(4.12)"><rect width="6" height="6"/></g>
<g transform="translate(313,601) scale(4.12)"><rect width="6" height="6"/></g>
<g transform="translate(385,601) scale(4.12)"><rect width="6" height="6"/></g>
<g transform="translate(409,601) scale(4.12)"><rect width="6" height="6"/></g>
<g transform="translate(433,601) scale(4.12)"><rect width="6" height="6"/></g>
<g transform="translate(649,601) scale(4.12)"><rect width="6" height="6"/></g>
<g transform="translate(673,601) scale(4.12)"><rect width="6" height="6"/></g>
<g transform="translate(769,601) scale(4.12)"><rect width="6" height="6"/></g>
<g transform="translate(793,601) scale(4.12)"><rect width="6" height="6"/></g>
<g transform="translate(145,625) scale(4.12)"><rect width="6" height="6"/></g>
<g transform="translate(241,625) scale(4.12)"><rect width="6" height="6"/></g>
<g transform="translate(289,625) scale(4.12)"><rect width="6" height="6"/></g>
<g transform="translate(313,625) scale(4.12)"><rect width="6" height="6"/></g>
<g transform="translate(457,625) scale(4.12)"><rect width="6" height="6"/></g>
<g transform="translate(481,625) scale(4.12)"><rect width="6" height="6"/></g>
<g transform="translate(505,625) scale(4.12)"><rect width="6" height="6"/></g>
<g transform="translate(577,625) scale(4.12)"><rect width="6" height="6"/></g>
<g transform="translate(625,625) scale(4.12)"><rect width="6" height="6"/></g>
<g transform="translate(649,625) scale(4.12)"><rect width="6" height="6"/></g>
<g transform="translate(673,625) scale(4.12)"><rect width="6" height="6"/></g>
<g transform="translate(697,625) scale(4.12)"><rect width="6" height="6"/></g>
<g transform="translate(721,625) scale(4.12)"><rect width="6" height="6"/></g>
<g transform="translate(745,625) scale(4.12)"><rect width="6" height="6"/></g>
<g transform="translate(769,625) scale(4.12)"><rect width="6" height="6"/></g>
<g transform="translate(337,649) scale(4.12)"><rect width="6" height="6"/></g>
<g transform="translate(361,649) scale(4.12)"><rect width="6" height="6"/></g>
<g transform="translate(481,649) scale(4.12)"><rect width="6" height="6"/></g>
<g transform="translate(529,649) scale(4.12)"><rect width="6" height="6"/></g>
<g transform="translate(577,649) scale(4.12)"><rect width="6" height="6"/></g>
<g transform="translate(601,649) scale(4.12)"><rect width="6" height="6"/></g>
<g transform="translate(625,649) scale(4.12)"><rect width="6" height="6"/></g>
<g transform="translate(721,649) scale(4.12)"><rect width="6" height="6"/></g>
<g transform="translate(769,649) scale(4.12)"><rect width="6" height="6"/></g>
<g transform="translate(817,649) scale(4.12)"><rect width="6" height="6"/></g>
<g transform="translate(361,673) scale(4.12)"><rect width="6" height="6"/></g>
<g transform="translate(409,673) scale(4.12)"><rect width="6" height="6"/></g>
<g transform="translate(433,673) scale(4.12)"><rect width="6" height="6"/></g>
<g transform="translate(457,673) scale(4.12)"><rect width="6" height="6"/></g>
<g transform="translate(505,673) scale(4.12)"><rect width="6" height="6"/></g>
<g transform="translate(529,673) scale(4.12)"><rect width="6" height="6"/></g>
<g transform="translate(601,673) scale(4.12)"><rect width="6" height="6"/></g>
<g transform="translate(625,673) scale(4.12)"><rect width="6" height="6"/></g>
<g transform="translate(673,673) scale(4.12)"><rect width="6" height="6"/></g>
<g transform="translate(721,673) scale(4.12)"><rect width="6" height="6"/></g>
<g transform="translate(745,673) scale(4.12)"><rect width="6" height="6"/></g>
<g transform="translate(769,673) scale(4.12)"><rect width="6" height="6"/></g>
<g transform="translate(793,673) scale(4.12)"><rect width="6" height="6"/></g>
<g transform="translate(361,697) scale(4.12)"><rect width="6" height="6"/></g>
<g transform="translate(409,697) scale(4.12)"><rect width="6" height="6"/></g>
<g transform="translate(481,697) scale(4.12)"><rect width="6" height="6"/></g>
<g transform="translate(529,697) scale(4.12)"><rect width="6" height="6"/></g>
<g transform="translate(553,697) scale(4.12)"><rect width="6" height="6"/></g>
<g transform="translate(625,697) scale(4.12)"><rect width="6" height="6"/></g>
<g transform="translate(721,697) scale(4.12)"><rect width="6" height="6"/></g>
<g transform="translate(745,697) scale(4.12)"><rect width="6" height="6"/></g>
<g transform="translate(769,697) scale(4.12)"><rect width="6" height="6"/></g>
<g transform="translate(793,697) scale(4.12)"><rect width="6" height="6"/></g>
<g transform="translate(817,697) scale(4.12)"><rect width="6" height="6"/></g>
<g transform="translate(337,721) scale(4.12)"><rect width="6" height="6"/></g>
<g transform="translate(433,721) scale(4.12)"><rect width="6" height="6"/></g>
<g transform="translate(481,721) scale(4.12)"><rect width="6" height="6"/></g>
<g transform="translate(529,721) scale(4.12)"><rect width="6" height="6"/></g>
<g transform="translate(601,721) scale(4.12)"><rect width="6" height="6"/></g>
<g transform="translate(625,721) scale(4.12)"><rect width="6" height="6"/></g>
<g transform="translate(649,721) scale(4.12)"><rect width="6" height="6"/></g>
<g transform="translate(673,721) scale(4.12)"><rect width="6" height="6"/></g>
<g transform="translate(697,721) scale(4.12)"><rect width="6" height="6"/></g>
<g transform="translate(721,721) scale(4.12)"><rect width="6" height="6"/></g>
<g transform="translate(745,721) scale(4.12)"><rect width="6" height="6"/></g>
<g transform="translate(769,721) scale(4.12)"><rect width="6" height="6"/></g>
<g transform="translate(337,745) scale(4.12)"><rect width="6" height="6"/></g>
<g transform="translate(361,745) scale(4.12)"><rect width="6" height="6"/></g>
<g transform="translate(385,745) scale(4.12)"><rect width="6" height="6"/></g>
<g transform="translate(409,745) scale(4.12)"><rect width="6" height="6"/></g>
<g transform="translate(457,745) scale(4.12)"><rect width="6" height="6"/></g>
<g transform="translate(481,745) scale(4.12)"><rect width="6" height="6"/></g>
<g transform="translate(649,745) scale(4.12)"><rect width="6" height="6"/></g>
<g transform="translate(673,745) scale(4.12)"><rect width="6" height="6"/></g>
<g transform="translate(697,745) scale(4.12)"><rect width="6" height="6"/></g>
<g transform="translate(745,745) scale(4.12)"><rect width="6" height="6"/></g>
<g transform="translate(793,745) scale(4.12)"><rect width="6" height="6"/></g>
<g transform="translate(337,769) scale(4.12)"><rect width="6" height="6"/></g>
<g transform="translate(361,769) scale(4.12)"><rect width="6" height="6"/></g>
<g transform="translate(457,769) scale(4.12)"><rect width="6" height="6"/></g>
<g transform="translate(481,769) scale(4.12)"><rect width="6" height="6"/></g>
<g transform="translate(505,769) scale(4.12)"><rect width="6" height="6"/></g>
<g transform="translate(529,769) scale(4.12)"><rect width="6" height="6"/></g>
<g transform="translate(553,769) scale(4.12)"><rect width="6" height="6"/></g>
<g transform="translate(601,769) scale(4.12)"><rect width="6" height="6"/></g>
<g transform="translate(673,769) scale(4.12)"><rect width="6" height="6"/></g>
<g transform="translate(721,769) scale(4.12)"><rect width="6" height="6"/></g>
<g transform="translate(769,769) scale(4.12)"><rect width="6" height="6"/></g>
<g transform="translate(793,769) scale(4.12)"><rect width="6" height="6"/></g>
<g transform="translate(361,793) scale(4.12)"><rect width="6" height="6"/></g>
<g transform="translate(457,793) scale(4.12)"><rect width="6" height="6"/></g>
<g transform="translate(481,793) scale(4.12)"><rect width="6" height="6"/></g>
<g transform="translate(673,793) scale(4.12)"><rect width="6" height="6"/></g>
<g transform="translate(793,793) scale(4.12)"><rect width="6" height="6"/></g>
<g transform="translate(817,793) scale(4.12)"><rect width="6" height="6"/></g>
<g transform="translate(385,817) scale(4.12)"><rect width="6" height="6"/></g>
<g transform="translate(409,817) scale(4.12)"><rect width="6" height="6"/></g>
<g transform="translate(481,817) scale(4.12)"><rect width="6" height="6"/></g>
<g transform="translate(505,817) scale(4.12)"><rect width="6" height="6"/></g>
<g transform="translate(553,817) scale(4.12)"><rect width="6" height="6"/></g>
<g transform="translate(625,817) scale(4.12)"><rect width="6" height="6"/></g>
<g transform="translate(697,817) scale(4.12)"><rect width="6" height="6"/></g>
<g transform="translate(721,817) scale(4.12)"><rect width="6" height="6"/></g>
<g transform="translate(745,817) scale(4.12)"><rect width="6" height="6"/></g>
<g transform="translate(769,817) scale(4.12)"><rect width="6" height="6"/></g>
<g transform="translate(793,817) scale(4.12)"><rect width="6" height="6"/></g>
</g><g id="front" fill="#2cce8a" transform="scale(41.083333333333)"><path d="M6.28,0.5c0,0.28-0.22,0.5-0.5,0.5H2C1.45,1,1,1.45,1,2v3.74c0,0.01,0.01,0.02,0.01,0.04c0,0.28-0.22,0.5-0.5,0.5  c-0.28,0-0.5-0.22-0.5-0.5H0V2c0-1.1,0.9-2,2-2h3.78C6.06,0,6.28,0.22,6.28,0.5z M24,5.78V2c0-1.1-0.9-2-2-2h-3.78v0.01  c-0.28,0-0.5,0.22-0.5,0.5c0,0.28,0.22,0.5,0.5,0.5c0.01,0,0.03-0.01,0.04-0.01H22c0.55,0,1,0.45,1,1v3.78c0,0.28,0.22,0.5,0.5,0.5  C23.78,6.28,24,6.06,24,5.78z M18.22,24H22c1.1,0,2-0.9,2-2v-3.78h-0.01c0-0.28-0.22-0.5-0.5-0.5c-0.28,0-0.5,0.22-0.5,0.5  c0,0.01,0.01,0.03,0.01,0.04V22c0,0.55-0.45,1-1,1h-3.78c-0.28,0-0.5,0.22-0.5,0.5C17.72,23.78,17.94,24,18.22,24z M0,18.22V22  c0,1.1,0.9,2,2,2h3.78v-0.01c0.28,0,0.5-0.22,0.5-0.5c0-0.28-0.22-0.5-0.5-0.5C5.77,22.99,5.76,23,5.74,23H2c-0.55,0-1-0.45-1-1  v-3.78c0-0.28-0.22-0.5-0.5-0.5C0.22,17.72,0,17.94,0,18.22z"/></g><g><g transform="translate(145,145)" fill="#ffffff"><g transform="scale(12)"><path d="M4.5,14h5.1C12,14,14,12,14,9.6V4.5C14,2,12,0,9.5,0H4.4C2,0,0,2,0,4.4v5.1C0,12,2,14,4.5,14z M12,4.8v4.4 c0,1.5-1.3,2.8-2.8,2.8H4.8C3.2,12,2,10.8,2,9.2V4.8C2,3.3,3.3,2,4.8,2h4.4C10.8,2,12,3.2,12,4.8z"/></g></g>
<g transform="translate(673,145)" fill="#ffffff"><g transform="scale(12)"><path d="M4.5,14h5.1C12,14,14,12,14,9.6V4.5C14,2,12,0,9.5,0H4.4C2,0,0,2,0,4.4v5.1C0,12,2,14,4.5,14z M12,4.8v4.4 c0,1.5-1.3,2.8-2.8,2.8H4.8C3.2,12,2,10.8,2,9.2V4.8C2,3.3,3.3,2,4.8,2h4.4C10.8,2,12,3.2,12,4.8z"/></g></g>
<g transform="translate(145,673)" fill="#ffffff"><g transform="scale(12)"><path d="M4.5,14h5.1C12,14,14,12,14,9.6V4.5C14,2,12,0,9.5,0H4.4C2,0,0,2,0,4.4v5.1C0,12,2,14,4.5,14z M12,4.8v4.4 c0,1.5-1.3,2.8-2.8,2.8H4.8C3.2,12,2,10.8,2,9.2V4.8C2,3.3,3.3,2,4.8,2h4.4C10.8,2,12,3.2,12,4.8z"/></g></g>
<g transform="translate(193,193)" fill="#ffffff"><g transform="scale(12)"><path d="M6,1.7v2.7C6,5.2,5.2,6,4.3,6H1.7C0.7,6,0,5.3,0,4.3V1.7C0,0.8,0.8,0,1.7,0h2.7C5.3,0,6,0.7,6,1.7z"/></g></g>
<g transform="translate(721,193)" fill="#ffffff"><g transform="scale(12)"><path d="M6,1.7v2.7C6,5.2,5.2,6,4.3,6H1.7C0.7,6,0,5.3,0,4.3V1.7C0,0.8,0.8,0,1.7,0h2.7C5.3,0,6,0.7,6,1.7z"/></g></g>
<g transform="translate(193,721)" fill="#ffffff"><g transform="scale(12)"><path d="M6,1.7v2.7C6,5.2,5.2,6,4.3,6H1.7C0.7,6,0,5.3,0,4.3V1.7C0,0.8,0.8,0,1.7,0h2.7C5.3,0,6,0.7,6,1.7z"/></g></g></g><g transform="translate(61.48,1063.3245622879) scale(0.87008771045468)"><path fill="#2cce8a" d="M26.9,108.1q3.3,0,5.45-0.55t3.45-1.5t1.8-2.25t0.5-2.9q0-3.4-3.2-5.65t-11-4.85q-3.4-1.2-6.8-2.75t-6.1-3.9t-4.4-5.7t-1.7-8.15t1.8-8.65t5.1-6.55t8-4.15t10.6-1.45q7,0,12.1,1.5t8.4,3.3l-4.5,12.3q-2.9-1.5-6.45-2.65t-8.55-1.15q-5.6,0-8.05,1.55t-2.45,4.75q0,1.9,0.9,3.2t2.55,2.35t3.8,1.9t4.75,1.75q5.4,2,9.4,3.95t6.65,4.55t3.95,6.1t1.3,8.5q0,9.7-6.8,15.05t-20.5,5.35q-4.6,0-8.3-0.55t-6.55-1.35t-4.9-1.7t-3.45-1.7l4.4-12.4q3.1,1.7,7.65,3.05t11.15,1.35z M64.7,54.3l14.9-2.4l0,15.5l17.9,0l0,12.4l-17.9,0l0,18.5q0,4.7,1.65,7.5t6.65,2.8q2.4,0,4.95-0.45t4.65-1.25l2.1,11.6q-2.7,1.1-6,1.9t-8.1,0.8q-6.1,0-10.1-1.65t-6.4-4.6t-3.35-7.15t-0.95-9.3l0-44.2z M107.1,94.1q0-7,2.15-12.25t5.65-8.75t8.05-5.3t9.35-1.8q11.2,0,17.7,6.85t6.5,20.15q0,1.3-0.1,2.85t-0.2,2.75l-33.8,0q0.5,4.6,4.3,7.3t10.2,2.7q4.1,0,8.05-0.75t6.45-1.85l2,12.1q-1.2,0.6-3.2,1.2t-4.45,1.05t-5.25,0.75t-5.6,0.3q-7.1,0-12.35-2.1t-8.7-5.75t-5.1-8.65t-1.65-10.8z M142.1,88.4q-0.1-1.9-0.65-3.7t-1.7-3.2t-2.9-2.3t-4.35-0.9q-2.5,0-4.3,0.85t-3,2.25t-1.85,3.25t-0.95,3.75l19.7,0z M201.7,94.1q0-6.9-3.1-11.05t-9.2-4.15q-2,0-3.7,0.15t-2.8,0.35l0,26.9q1.4,0.9,3.65,1.5t4.55,0.6q10.6,0,10.6-14.3z M216.9,93.7q0,6.1-1.5,11.1t-4.4,8.6t-7.2,5.6t-9.9,2q-3.1,0-5.8-0.6t-5.2-1.7l0,19.8l-14.9,0l0-69.3q2-0.6,4.6-1.15t5.45-0.95t5.8-0.65t5.65-0.25q6.5,0,11.6,1.95t8.6,5.5t5.35,8.65t1.85,11.4z  M252.4,65.1q2.9-1.2,6.05-2.75t6.15-3.4t5.75-3.9t4.95-4.35l10.4,0l0,69.3l-14.9,0l0-49.9q-3,2-6.7,3.65t-7.2,2.85z M316.1,90.1q0-11.8-3.7-22.5t-9.7-19.2l10.4-6.7q8.5,9.9,13.1,22.2t4.6,26.2t-4.6,26.2t-13.1,22.2l-10.4-6.7q6-8.5,9.7-19.2t3.7-22.5z  M401.4,121.4q-16.9,0-25.75-9.4t-8.85-26.7q0-8.6,2.7-15.35t7.4-11.4t11.2-7.05t14.1-2.4q4.4,0,8,0.65t6.3,1.5t4.5,1.75t2.6,1.4l-4.5,12.6q-3.2-1.7-7.45-2.9t-9.65-1.2q-3.6,0-7.05,1.2t-6.1,3.85t-4.25,6.85t-1.6,10.2q0,4.8,1.05,8.95t3.4,7.15t6.15,4.75t9.2,1.75q3.4,0,6.1-0.4t4.8-0.95t3.7-1.25t2.9-1.3l4.3,12.5q-3.3,2-9.3,3.6t-13.9,1.6z M482.8,93.6q0,6.2-1.8,11.35t-5.2,8.8t-8.15,5.65t-10.65,2q-5.8,0-10.55-2t-8.15-5.65t-5.3-8.8t-1.9-11.35t1.95-11.3t5.4-8.7t8.2-5.6t10.35-2q5.7,0,10.45,2t8.15,5.6t5.3,8.7t1.9,11.3z M467.6,93.6q0-6.9-2.75-10.85t-7.85-3.95t-7.9,3.95t-2.8,10.85t2.8,10.95t7.9,4.05t7.85-4.05t2.75-10.95z M494.3,69.2q3.8-1.1,9.8-2.05t12.6-0.95q6.7,0,11.15,1.75t7.05,4.95t3.7,7.6t1.1,9.8l0,29.7l-14.9,0l0-27.9q0-7.2-1.9-10.2t-7.1-3q-1.6,0-3.4,0.15t-3.2,0.35l0,40.6l-14.9,0l0-50.8z M553.2,69.2q3.8-1.1,9.8-2.05t12.6-0.95q6.7,0,11.15,1.75t7.05,4.95t3.7,7.6t1.1,9.8l0,29.7l-14.9,0l0-27.9q0-7.2-1.9-10.2t-7.1-3q-1.6,0-3.4,0.15t-3.2,0.35l0,40.6l-14.9,0l0-50.8z M609.6,94.1q0-7,2.15-12.25t5.65-8.75t8.05-5.3t9.35-1.8q11.2,0,17.7,6.85t6.5,20.15q0,1.3-0.1,2.85t-0.2,2.75l-33.8,0q0.5,4.6,4.3,7.3t10.2,2.7q4.1,0,8.05-0.75t6.45-1.85l2,12.1q-1.2,0.6-3.2,1.2t-4.45,1.05t-5.25,0.75t-5.6,0.3q-7.1,0-12.35-2.1t-8.7-5.75t-5.1-8.65t-1.65-10.8z M644.6,88.4q-0.1-1.9-0.65-3.7t-1.7-3.2t-2.9-2.3t-4.35-0.9q-2.5,0-4.3,0.85t-3,2.25t-1.85,3.25t-0.95,3.75l19.7,0z M668,93.7q0-5.7,1.85-10.75t5.35-8.8t8.5-5.95t11.4-2.2q4.2,0,7.7,0.75t6.8,2.15l-3.1,11.9q-2.1-0.8-4.6-1.4t-5.6-0.6q-6.6,0-9.85,4.1t-3.25,10.8q0,7.1,3.05,11t10.65,3.9q2.7,0,5.8-0.5t5.7-1.6l2.1,12.2q-2.6,1.1-6.5,1.9t-8.6,0.8q-7.2,0-12.4-2.15t-8.55-5.85t-4.9-8.75t-1.55-10.95z M720,54.3l14.9-2.4l0,15.5l17.9,0l0,12.4l-17.9,0l0,18.5q0,4.7,1.65,7.5t6.65,2.8q2.4,0,4.95-0.45t4.65-1.25l2.1,11.6q-2.7,1.1-6,1.9t-8.1,0.8q-6.1,0-10.1-1.65t-6.4-4.6t-3.35-7.15t-0.95-9.3l0-44.2z  M836.4,58.1q1.2,4.1,2.65,9.25t3.1,10.65t3.35,11t3.3,10.2q1.3-5.1,2.65-11.1t2.55-12.4t2.35-12.75t2.15-12.25l16.2,0q-3.5,17.4-8.05,35.3t-9.85,34l-14.3,0q-3.5-9.6-6.8-20.15t-6.5-21.15q-3.2,10.6-6.4,21.15t-6.7,20.15l-14.3,0q-5.3-16.1-9.85-34t-8.05-35.3l16.9,0q1,5.9,2.2,12.25t2.5,12.75t2.65,12.4t2.75,11.1q1.8-4.9,3.5-10.4t3.3-11t2.95-10.6t2.45-9.1l13.3,0z M898.6,120l-14.9,0l0-52.6l14.9,0l0,52.6z M900,52.2q0,4.1-2.65,6.45t-6.25,2.35t-6.25-2.35t-2.65-6.45t2.65-6.45t6.25-2.35t6.25,2.35t2.65,6.45z M913.6,120l0-69.3l46.4,0l0,13.1l-30.8,0l0,14.5l27.4,0l0,13.1l-27.4,0l0,28.6l-15.6,0z M984.9,120l-14.9,0l0-52.6l14.9,0l0,52.6z M986.3,52.2q0,4.1-2.65,6.45t-6.25,2.35t-6.25-2.35t-2.65-6.45t2.65-6.45t6.25-2.35t6.25,2.35t2.65,6.45z"/></g></svg>
